<?xml version="1.0" encoding="utf-8"?>
<!-- Generator: Adobe Illustrator 25.0.0, SVG Export Plug-In . SVG Version: 6.00 Build 0)  -->
<svg version="1.1" id="Capa_1" xmlns="http://www.w3.org/2000/svg" xmlns:xlink="http://www.w3.org/1999/xlink" x="0px" y="0px"
	 viewBox="0 0 575 315" style="enable-background:new 0 0 575 315;" xml:space="preserve">
<style type="text/css">
	.st0{fill:#00FFF0;}
</style>
<path class="st0" d="M490.54,194.64h-30.47c-0.03,0-0.06-0.02-0.07-0.05c-1.19-3.86-2.64-7.63-4.33-11.24
	c-4.6-9.91-10.98-18.83-18.76-26.31l0,0c4.84-4.73,9.12-9.99,12.78-15.74c1.93-3.04,3.69-6.21,5.21-9.49
	c0.02-0.05-0.01-0.11-0.07-0.11H161.37c-0.04,0-0.08-0.03-0.08-0.08v-74.1c0-0.04,0.03-0.08,0.08-0.08h208.77
	c13.86-0.06,27.72,2.94,32.22,11.18c0.03,0.05-0.01,0.12-0.07,0.12h-230.7c-0.04,0-0.08,0.03-0.08,0.08v51.5
	c0,0.04,0.03,0.08,0.08,0.08h318.94h0.01c14.95,1.96,17.8,8.09,18.27,11.24c0.01,0.04,0.04,0.06,0.07,0.06h57.11
	c0.04,0,0.08-0.03,0.08-0.07c-0.12-2.22-0.41-6.24-1.32-11.22c-3.47-18.92-15.76-51.65-59.16-51.65h-45.9
	c-0.03,0-0.06-0.02-0.07-0.05c-1.14-3.88-2.57-7.63-4.25-11.24C442.5,29.34,415.25,9.19,383.03,6.36h-0.01H109.19
	c-0.04,0-0.08,0.03-0.08,0.08v62.25c0,0.04-0.03,0.08-0.08,0.08H63.79c0,0-37.32,0-49.65,51.65c-0.85,3.52-1.57,7.28-2.15,11.3
	c-1.12,7.64-1.75,16.2-1.75,25.82c0,9.62,0.63,18.18,1.75,25.82c0.58,4.01,1.3,7.78,2.15,11.3c12.33,51.64,49.65,51.64,49.65,51.64
	h45.25c0.04,0,0.08,0.03,0.08,0.08v62.8c0,0.04,0.03,0.08,0.08,0.08h266.1c35.73,0,66.53-21.16,80.54-51.64
	c1.67-3.62,3.08-7.38,4.27-11.24c0.01-0.03,0.04-0.05,0.07-0.05h45.43c43.4,0,55.69-32.73,59.16-51.64
	c0.91-4.99,1.2-9.02,1.32-11.22c0-0.04-0.03-0.07-0.08-0.07H508.9c-0.04,0-0.07,0.02-0.07,0.06c-0.47,3.15-3.34,9.28-18.27,11.24
	C490.55,194.64,490.55,194.64,490.54,194.64z M375.31,257.59H161.37c-0.04,0-0.08-0.03-0.08-0.08v-11.14c0-0.04,0.03-0.08,0.08-0.08
	h213.88c14.25,0,26.52-11.14,26.75-25.4c0.23-14.45-11.43-26.25-25.82-26.25H83.43c0,0-10.13,0-16.77-11.3
	c-3.23-5.5-5.63-13.67-5.63-25.82s2.4-20.34,5.63-25.82c6.64-11.3,16.77-11.3,16.77-11.3h25.62c0.04,0,0.08,0.03,0.08,0.08v62.8
	c0,0.04,0.03,0.08,0.08,0.08h266.11c10.62,0,20.24,4.32,27.08,11.3c6.59,6.66,10.62,15.78,10.62,25.82s-4.03,19.16-10.62,25.82
	C395.55,253.25,385.93,257.59,375.31,257.59z"/>
</svg>
